<svg xmlns="http://www.w3.org/2000/svg" viewBox="0 0 1129 663">
  <!-- Background Elements -->
  <ellipse cx="559" cy="635.5" rx="514" ry="27.5" fill="#3f3d56" opacity="0.2"/>
  
  <!-- Raspberry Pi Section -->
  <g id="raspberry-pi" transform="translate(200, 250)">
    <!-- Board -->
    <rect x="0" y="0" width="200" height="150" rx="10" fill="#3f3d56"/>
    <!-- GPIO Pins -->
    <g fill="#3ecc5f">
      <rect x="20" y="15" width="8" height="8" rx="1"/>
      <rect x="35" y="15" width="8" height="8" rx="1"/>
      <rect x="50" y="15" width="8" height="8" rx="1"/>
      <rect x="65" y="15" width="8" height="8" rx="1"/>
      <rect x="20" y="30" width="8" height="8" rx="1"/>
      <rect x="35" y="30" width="8" height="8" rx="1"/>
      <rect x="50" y="30" width="8" height="8" rx="1"/>
      <rect x="65" y="30" width="8" height="8" rx="1"/>
    </g>
    <!-- USB Ports -->
    <rect x="140" y="20" width="40" height="15" rx="2" fill="#2e8555"/>
    <rect x="140" y="45" width="40" height="15" rx="2" fill="#2e8555"/>
    <!-- Ethernet -->
    <rect x="140" y="80" width="50" height="25" rx="2" fill="#2e8555"/>
    <!-- SD Card -->
    <rect x="20" y="120" width="40" height="20" rx="2" fill="#2e8555"/>
    <text x="100" y="90" fill="#3ecc5f" font-size="14" font-family="monospace">RPi</text>
  </g>

  <!-- Flight Controller Section -->
  <g id="flight-controller" transform="translate(500, 250)">
    <!-- Main Board -->
    <rect x="0" y="0" width="180" height="150" rx="8" fill="#2e8555"/>
    <!-- Processor -->
    <rect x="60" y="20" width="60" height="60" rx="4" fill="#3f3d56"/>
    <!-- Connection Points -->
    <g fill="#3ecc5f">
      <circle cx="30" cy="30" r="5"/>
      <circle cx="30" cy="50" r="5"/>
      <circle cx="30" cy="70" r="5"/>
      <circle cx="150" cy="30" r="5"/>
      <circle cx="150" cy="50" r="5"/>
      <circle cx="150" cy="70" r="5"/>
    </g>
    <!-- IMU Indicator -->
    <rect x="50" y="100" width="80" height="20" rx="4" fill="#3ecc5f"/>
    <text x="65" y="115" fill="#3f3d56" font-size="12" font-family="monospace">IMU/GPS</text>
    <text x="90" y="90" fill="#3ecc5f" font-size="14" font-family="monospace">FC</text>
  </g>

  <!-- Drone Frame -->
  <g id="drone" transform="translate(800, 200)">
    <!-- Central Hub -->
    <circle cx="100" cy="100" r="30" fill="#3f3d56"/>
    <!-- Arms -->
    <g stroke="#2e8555" stroke-width="10">
      <line x1="100" y1="100" x2="30" y2="30"/>
      <line x1="100" y1="100" x2="170" y2="30"/>
      <line x1="100" y1="100" x2="30" y2="170"/>
      <line x1="100" y1="100" x2="170" y2="170"/>
    </g>
    <!-- Motors -->
    <g fill="#3ecc5f">
      <circle cx="30" cy="30" r="15"/>
      <circle cx="170" cy="30" r="15"/>
      <circle cx="30" cy="170" r="15"/>
      <circle cx="170" cy="170" r="15"/>
    </g>
  </g>

  <!-- Connection Lines -->
  <g id="connections" stroke="#3ecc5f" stroke-width="2" stroke-dasharray="5,5">
    <!-- RPi to FC -->
    <path d="M400 320 L500 320"/>
    <!-- FC to Drone -->
    <path d="M680 320 L800 300"/>
  </g>

  <!-- Network Signals -->
  <g id="network-signals" transform="translate(400, 100)">
    <!-- WiFi -->
    <path d="M 0 50 q 100 -100 200 0" fill="none" stroke="#2e8555" stroke-width="2"/>
    <path d="M 40 50 q 60 -60 120 0" fill="none" stroke="#2e8555" stroke-width="2"/>
    <path d="M 80 50 q 20 -20 40 0" fill="none" stroke="#2e8555" stroke-width="2"/>
    <!-- 4G/LTE -->
    <g transform="translate(300, 0)">
      <rect x="0" y="0" width="4" height="20" fill="#3ecc5f"/>
      <rect x="8" y="0" width="4" height="30" fill="#3ecc5f"/>
      <rect x="16" y="0" width="4" height="40" fill="#3ecc5f"/>
      <rect x="24" y="0" width="4" height="50" fill="#3ecc5f"/>
    </g>
  </g>

  <!-- Labels -->
  <g id="labels" font-family="Arial" font-size="12" fill="#3f3d56">
    <text x="230" y="230">Raspberry Pi</text>
    <text x="520" y="230">Flight Controller</text>
    <text x="830" y="180">UAV/Drone</text>
    <text x="400" y="90">Network Connectivity</text>
  </g>

  <!-- Terminal Window -->
  <g id="terminal" transform="translate(200, 450)">
    <rect x="0" y="0" width="250" height="120" rx="5" fill="#3f3d56"/>
    <text x="10" y="30" fill="#3ecc5f" font-size="12" font-family="monospace">$ UAVcast-Pro Status</text>
    <text x="10" y="50" fill="#3ecc5f" font-size="12" font-family="monospace">Connected to FC: ✓</text>
    <text x="10" y="70" fill="#3ecc5f" font-size="12" font-family="monospace">Network: 4G LTE</text>
    <text x="10" y="90" fill="#3ecc5f" font-size="12" font-family="monospace">Signal: Strong</text>
  </g>

  <!-- Status Indicators -->
  <g id="status" transform="translate(800, 450)">
    <!-- Signal Strength -->
    <g transform="translate(0, 0)">
      <rect x="0" y="20" width="15" height="20" fill="#3ecc5f"/>
      <rect x="20" y="10" width="15" height="30" fill="#3ecc5f"/>
      <rect x="40" y="0" width="15" height="40" fill="#3ecc5f"/>
    </g>
    <!-- Connection Status -->
    <circle cx="100" cy="20" r="15" fill="none" stroke="#3ecc5f" stroke-width="2"/>
    <path d="M90 20l7 7l15-15" stroke="#3ecc5f" stroke-width="2" fill="none"/>
  </g>
</svg>